<svg xmlns="http://www.w3.org/2000/svg" xmlns:xlink="http://www.w3.org/1999/xlink" width="16" height="16" viewBox="0 0 16 16">
    <defs>
        <path id="pmrgjccu7a" d="M0 0L15.21 0 15.21 15.21 0 15.21z"/>
    </defs>
    <g fill="none" fill-rule="evenodd">
        <g>
            <g>
                <g>
                    <g transform="translate(-75 -6450) translate(43 6449) translate(32 1)">
                        <mask id="imc9xzr6ib" fill="#fff">
                            <use xlink:href="#pmrgjccu7a"/>
                        </mask>
                        <path fill="#222831" d="M11.863 4.427c-.677 0-1.229-.551-1.229-1.229s.552-1.229 1.23-1.229c.677 0 1.228.551 1.228 1.229s-.551 1.229-1.229 1.229m-4.258 7.337c-2.293 0-4.159-1.866-4.159-4.159 0-2.293 1.866-4.159 4.159-4.159 2.293 0 4.159 1.866 4.159 4.159 0 2.293-1.866 4.159-4.159 4.159M11.093 0H4.117C1.847 0 0 1.847 0 4.117v6.976c0 2.27 1.847 4.117 4.117 4.117h6.976c2.27 0 4.117-1.847 4.117-4.117V4.117C15.21 1.847 13.363 0 11.093 0" mask="url(#imc9xzr6ib)"/>
                    </g>
                    <path fill="#222831" d="M7.605 4.563c-1.677 0-3.042 1.365-3.042 3.042 0 1.677 1.365 3.042 3.042 3.042 1.677 0 3.042-1.365 3.042-3.042 0-1.677-1.365-3.042-3.042-3.042" transform="translate(-75 -6450) translate(43 6449) translate(32 1)"/>
                </g>
            </g>
        </g>
    </g>
</svg>
