<?xml version="1.0" encoding="utf-8"?>
<!-- Generator: Adobe Illustrator 24.3.0, SVG Export Plug-In . SVG Version: 6.00 Build 0)  -->
<svg version="1.1" id="Livello_1" xmlns="http://www.w3.org/2000/svg" xmlns:xlink="http://www.w3.org/1999/xlink" x="0px" y="0px"
	 viewBox="0 0 16 16" style="enable-background:new 0 0 16 16;" xml:space="preserve">
<style type="text/css">
	.st0{filter:url(#Adobe_OpacityMaskFilter);}
	.st1{fill-rule:evenodd;clip-rule:evenodd;fill:#FFFFFF;}
	.st2{mask:url(#imc9xzr6ib_1_);fill-rule:evenodd;clip-rule:evenodd;fill:#FFFFFF;}
</style>
<g>
	<g>
		<g>
			<g>
				<g transform="translate(-75 -6450) translate(43 6449) translate(32 1)">
					<defs>
						<filter id="Adobe_OpacityMaskFilter" filterUnits="userSpaceOnUse" x="0" y="0" width="15.2" height="15.2">
							<feColorMatrix  type="matrix" values="1 0 0 0 0  0 1 0 0 0  0 0 1 0 0  0 0 0 1 0"/>
						</filter>
					</defs>
					<mask maskUnits="userSpaceOnUse" x="0" y="0" width="15.2" height="15.2" id="imc9xzr6ib_1_">
						<g class="st0">
							<path id="pmrgjccu7a_1_" class="st1" d="M0,0h15.2v15.2H0V0z"/>
						</g>
					</mask>
					<path class="st2" d="M11.9,4.4c-0.7,0-1.2-0.6-1.2-1.2S11.2,2,11.9,2c0.7,0,1.2,0.6,1.2,1.2S12.5,4.4,11.9,4.4 M7.6,11.8
						c-2.3,0-4.2-1.9-4.2-4.2s1.9-4.2,4.2-4.2s4.2,1.9,4.2,4.2S9.9,11.8,7.6,11.8 M11.1,0h-7C1.8,0,0,1.8,0,4.1v7
						c0,2.3,1.8,4.1,4.1,4.1h7c2.3,0,4.1-1.8,4.1-4.1v-7C15.2,1.8,13.4,0,11.1,0"/>
				</g>
				<path class="st1" d="M7.6,4.6c-1.7,0-3,1.4-3,3s1.4,3,3,3s3-1.4,3-3S9.3,4.6,7.6,4.6"/>
			</g>
		</g>
	</g>
</g>
</svg>
