<svg xmlns="http://www.w3.org/2000/svg" xmlns:xlink="http://www.w3.org/1999/xlink" width="35" height="35" viewBox="0 0 35 35">
    <defs>
        <path id="b1vrrt90ka" d="M0 0L34.282 0 34.282 34.282 0 34.282z"/>
    </defs>
    <g fill="none" fill-rule="evenodd">
        <g>
            <g>
                <g>
                    <g>
                        <g>
                            <g>
                                <g>
                                    <g>
                                        <g>
                                            <g transform="translate(-799 -502) translate(381 457) translate(0 2.94) translate(360.49) translate(57.82 42.14)">
                                                <mask id="dpbtagr4ub" fill="#fff">
                                                    <use xlink:href="#b1vrrt90ka"/>
                                                </mask>
                                                <path fill="#FFF" d="M23.031 32.047c-.408-.545-.783-1.115-1.121-1.706l-.172-.294c-.578-.98-1.023-1.842-.61-2.47.118-.198.32-.33.547-.358.517-.016 1.02.174 1.395.53l.102.09c.41.363.92.815 1.605.836.422-.015.83-.147 1.182-.38.154-.097.32-.173.493-.228.528-.122 1.52-.143 2.089.3.006.004.014.007.02.012-1.568 1.594-3.451 2.843-5.53 3.668m-10.35.49c.476-.875.854-1.8 1.125-2.76.861-3.15-.594-4.406-1.966-4.905-.528-.175-1.068-.312-1.615-.41-1.003-.205-2.04-.417-2.66-1.035-.103-.087-.159-.219-.15-.353.065-.224.56-.37.921-.478.16-.047.31-.092.45-.146 1.548-.6 2.723-1.4 3.491-2.38.278-.43.481-.905.602-1.403.156-.498.417-1.332.686-1.42.078-.024.255.018.525.21.288.284 1.79 1.692 3.065 1.55.457-.05.867-.303 1.115-.69.317-.35 1.29-1.865-1.53-5.28l-1.86-2.315c-.16-.199-.148-.602-.136-.992.005-.176.01-.357 0-.531-.06-1.01-.668-1.578-1.205-2.08-.23-.2-.442-.421-.633-.66-.203-.31-.35-.653-.436-1.015-.131-.569-.394-1.1-.767-1.55-.445-.489-.982-.885-1.58-1.167 1.731-.847 3.602-1.372 5.522-1.55.294 1.054 2.343 1.932 3.888 2.193.418.07.841.104 1.265.104 1.276 0 2.469-.321 2.908-.957 1.452.655 2.799 1.522 3.996 2.573.08.95-.046 1.906-.37 2.802-.122.213-.267.412-.433.593-.472.567-1.118 1.343-.635 2.327.156.3.34.584.552.847.296.392.51.675.539 1.166.041.622-.237 1.222-.737 1.593-.496.364-1.111.485-1.763.614-.706.139-1.435.283-2.086.743-1.188.84-1.351 2.497-1.108 3.768.307 1.604 1.26 2.823 2.426 3.105.215.05.435.075.655.074.647-.026 1.284-.167 1.88-.417 1.45-.55 4.084-.64 5.768-.215-.657 2.014-1.707 3.877-3.088 5.482-.025-.03-.053-.056-.083-.08-.879-.682-2.174-.697-3.017-.502-.276.076-.54.19-.784.34-.182.124-.389.205-.606.24-.287-.01-.601-.288-.906-.558l-.107-.095c-.527-.461-1.399-.912-2.272-.794-.544.071-1.029.381-1.322.846-.826 1.255.02 2.69.58 3.64.058.097.113.19.164.28.305.533.637 1.05.996 1.548-3.01.946-6.234.98-9.264.1M1.445 20.42c.263-1.004 1.086-2.342 1.776-2.869.448-.341 1.061-.809 1.258-1.568.279-1.08-.2-2.13-.621-3.056-.178-.365-.33-.742-.456-1.129l-.069-.233c-.24-.811-.443-1.516-.032-2.508 1.348-2.3 3.243-4.23 5.518-5.618.793.185 1.513.602 2.067 1.2.258.33.438.715.526 1.126.12.487.327.949.612 1.362.23.289.484.557.76.802.526.49.825.793.856 1.335.008.125.003.274-.002.433-.015.535-.035 1.201.381 1.72l1.863 2.318c1.94 2.348 1.803 3.545 1.576 3.83-.039.029-.07.067-.09.112-.065.129-.19.216-.334.231-.576.069-1.63-.7-2.193-1.263-.02-.02-.041-.038-.064-.055-.563-.415-1.087-.548-1.556-.394-.81.266-1.122 1.262-1.398 2.14-.091.368-.231.722-.416 1.052-.644.82-1.66 1.504-3.02 2.031-.106.041-.232.078-.365.117-.57.17-1.434.425-1.668 1.228-.132.525.033 1.08.43 1.447.855.85 2.111 1.108 3.22 1.334.494.088.98.21 1.458.367.955.347 1.963 1.066 1.277 3.573-.269.943-.647 1.85-1.128 2.705-5.186-1.918-9.024-6.361-10.166-11.77m.706-8.967c.04.145.081.287.122.426l.067.226c.14.438.31.866.511 1.28.38.834.738 1.62.557 2.32-.094.362-.415.629-.858.967-.561.47-1.033 1.036-1.394 1.674-.03-.4-.05-.8-.05-1.207-.001-1.943.353-3.87 1.045-5.686m20.418-9.4c-.911.34-1.9.418-2.852.226-1.022-.152-1.99-.553-2.821-1.167.082-.001.163-.006.245-.006 1.85-.001 3.687.32 5.428.947M33.176 17.14c0 1.311-.161 2.618-.48 3.89-1.925-.5-4.775-.4-6.466.242-.567.215-1.295.445-1.883.302-.734-.178-1.377-1.077-1.6-2.238-.22-1.154.045-2.222.66-2.657.459-.324 1.043-.44 1.662-.562.707-.139 1.509-.297 2.203-.807.804-.592 1.25-1.553 1.187-2.549-.055-.656-.322-1.276-.761-1.767-.168-.209-.316-.432-.441-.67-.151-.307.034-.58.492-1.13.226-.25.42-.525.579-.821.284-.703.448-1.449.488-2.207 2.802 2.967 4.362 6.894 4.36 10.974m1.106 0C34.285 7.676 26.615.003 17.152 0c-6.06-.002-11.67 3.196-14.754 8.41-.033.04-.06.082-.082.128l-.019.047C.217 12.18-.482 16.407.329 20.48c.003.02.006.042.011.062 1.88 9.278 10.924 15.275 20.203 13.396 7.993-1.619 13.739-8.644 13.739-16.798" mask="url(#dpbtagr4ub)"/>
                                            </g>
                                            <path fill="#FFF" stroke="#FFF" stroke-width=".903" d="M28.562 5.597l-1.926 4.781 1.287 2.583-1.287 1.938-4.067 2.242v3.022l1.472 1.885 7.258-.43h1.877v-1.455-7.202l-1.877-4.578-2.737-2.786z" transform="translate(-799 -502) translate(381 457) translate(0 2.94) translate(360.49) translate(57.82 42.14)"/>
                                        </g>
                                    </g>
                                </g>
                            </g>
                        </g>
                    </g>
                </g>
            </g>
        </g>
    </g>
</svg>
