<svg xmlns="http://www.w3.org/2000/svg" xmlns:xlink="http://www.w3.org/1999/xlink" width="32" height="39" viewBox="0 0 32 39">
    <defs>
        <path id="o6lfk3odma" d="M0 0.317L31.104 0.317 31.104 38.525 0 38.525z"/>
    </defs>
    <g fill="none" fill-rule="evenodd">
        <g>
            <g>
                <g>
                    <g>
                        <g>
                            <g>
                                <g>
                                    <g transform="translate(-979 -495) translate(381 457) translate(598.282 38.22)">
                                        <mask id="ju5v72boib" fill="#fff">
                                            <use xlink:href="#o6lfk3odma"/>
                                        </mask>
                                        <path fill="#FFF" d="M6 11.294c-2.737 0-4.948-2.217-4.948-4.961S3.262 1.373 6 1.373c2.579 0 4.684 2.005 4.947 4.538H6.368c-.684 0-1.21.37-1.21.897v.21l3.315 3.642c-.737.423-1.579.634-2.473.634zm21.42-1.795l-.21-.052c-1.264-.475-2.58-.95-4.948-.95-2.368 0-3.684.475-4.947.95-1.263.422-2.42.844-4.631.844-1.685 0-2.737-.264-3.632-.528L6.526 6.966h23.21L27.42 9.5zm-17.052 1.69c.631.105 1.42.21 2.316.21 2.368 0 3.684-.475 4.947-.95 1.21-.475 2.369-.897 4.579-.897 2.105 0 3.263.37 4.42.844l-8.472 9.183h-.106l-7.684-8.39zm8.263 9.446L31.104 7.019v-.211c0-.528-.526-.897-1.21-.897H11.999C11.79 2.797 9.157.317 6 .317c-3.315 0-6 2.691-6 6.016s2.685 6.016 6 6.016c1.106 0 2.211-.317 3.158-.897l8.421 9.183v16.834h-3.526c-.316 0-.526.212-.526.528 0 .317.21.528.526.528h8.105c.316 0 .526-.211.526-.528 0-.316-.21-.528-.526-.528h-3.526V20.635z" mask="url(#ju5v72boib)"/>
                                    </g>
                                    <path fill="#FFF" d="M4.42 6.316c0-.38-.224-.632-.56-.632H2.456c-.337 0-.561.253-.561.632 0 .378.224.631.561.631H3.86c.28 0 .56-.253.56-.631M5.684 5.052c.379 0 .632-.224.632-.56V3.087c0-.337-.253-.562-.632-.562s-.632.225-.632.562V4.49c0 .28.316.561.632.561M4.205 7.711l-.898.907c-.2.2-.2.503 0 .704.1.101.25.151.35.151.1 0 .249-.05.348-.15l.898-.907c.2-.201.2-.503 0-.705-.2-.2-.499-.15-.698 0M7.446 5.684c.15 0 .249-.05.349-.15l.897-.897c.2-.2.2-.499 0-.698-.2-.2-.498-.2-.698 0l-.897.897c-.2.2-.2.499 0 .698.1.1.2.15.349.15M4.005 3.939c-.199-.2-.498-.2-.698 0-.2.2-.2.499 0 .698l.898.897c.1.1.25.15.349.15.1 0 .25-.05.349-.15.2-.199.2-.498 0-.698l-.898-.897z" transform="translate(-979 -495) translate(381 457) translate(598.282 38.22)"/>
                                </g>
                                <path fill="#FFF" stroke="#FFF" stroke-width=".903" d="M17.61 19.58l-7.242-8.286h4.21l7.562-1.82c4.691-.577 5.849.419 3.473 2.985-2.376 2.567-5.043 4.94-8.003 7.12z" transform="translate(-979 -495) translate(381 457) translate(598.282 38.22)"/>
                            </g>
                        </g>
                    </g>
                </g>
            </g>
        </g>
    </g>
</svg>
