<svg xmlns="http://www.w3.org/2000/svg" xmlns:xlink="http://www.w3.org/1999/xlink" width="44" height="50" viewBox="0 0 44 50">
    <defs>
        <path id="1lz9wk6nwa" d="M0.5 0L43.5 0 43.5 50 0.5 50z"/>
    </defs>
    <g fill="none" fill-rule="evenodd">
        <g>
            <g transform="translate(-698 -284) translate(698 284)">
                <mask id="70ianz9e6b" fill="#fff">
                    <use xlink:href="#1lz9wk6nwa"/>
                </mask>
                <path fill="#FEFEFE" d="M21.483 19.809l-4.974-4.948h23.523l.113-.113v.113h-.113l-4.634 4.885h-1.56l-2.747.063h-9.608zm-7.543-.113l-4.76-4.948h4.47l4.974 4.948H13.94zM9.067 8.735c-.442.5-1.109.676-1.84.563-.843-.112-1.674-.563-2.353-1.277-1.336-1.34-1.613-3.283-.606-4.285.392-.338.894-.563 1.449-.563.113 0 .277 0 .39.062.844.113 1.675.551 2.355 1.278.666.727 1.108 1.553 1.17 2.393.051.776-.112 1.39-.565 1.829zM26.432 31.91l7.87-8.167 8.916-9.27c.29-.289.34-.727.225-1.066-.161-.388-.502-.613-.893-.613H14.494L11.08 9.41c.453-.789.667-1.678.565-2.668-.112-1.29-.73-2.568-1.735-3.57-1.009-.99-2.243-1.667-3.527-1.83-1.007-.162-1.952 0-2.733.439L2.191.292c-.39-.39-.994-.39-1.398 0-.39.388-.39 1.001 0 1.39l1.46 1.49c-1.056 1.792-.617 4.398 1.172 6.29 1.007 1.002 2.24 1.665 3.526 1.84.214.051.442.051.717.051.73 0 1.46-.163 2.015-.501l2.015 2.004h-4.81c-.39 0-.781.226-.894.614-.164.388-.05.777.226 1.052l8.815 9.183 7.87 8.205.756.79v15.296H13.99c-.555 0-1.007.45-1.007 1.002 0 .551.452 1.002 1.007 1.002h21.357c.554 0 .995-.451.995-1.002 0-.551-.44-1.002-.995-1.002h-9.671V32.7l.756-.79z" mask="url(#70ianz9e6b)"/>
            </g>
        </g>
    </g>
</svg>
