<svg xmlns="http://www.w3.org/2000/svg" xmlns:xlink="http://www.w3.org/1999/xlink" width="24" height="41" viewBox="0 0 24 41">
    <defs>
        <path id="zgitpthqja" d="M.024.421l.464 5.795.99-.972c1.544-1.169 3.763-.795 5.618-.05C9.88 6.306 12.043 8.13 15.238 8.13c2.131 0 3.813-.285 5.05-.852L21.304.42H.024z"/>
    </defs>
    <g fill="none" fill-rule="evenodd">
        <g>
            <g>
                <g>
                    <g>
                        <g>
                            <g transform="translate(-25 -1889) translate(25 1887) translate(0 2) translate(1.2 7.104)">
                                <mask id="fnq8suko6b" fill="#fff">
                                    <use xlink:href="#zgitpthqja"/>
                                </mask>
                                <path fill="#FFF" d="M-414.389 484.937L223.168 484.937 223.168 -590.082 -414.389 -590.082z" mask="url(#fnq8suko6b)"/>
                                <path fill="#C44E4E" d="M-9.939 17.594L31.265 17.594 31.265 -9.043 -9.939 -9.043z" mask="url(#fnq8suko6b)"/>
                            </g>
                            <path fill="#FFF" d="M2.945 13.268c1.653-1.257 4.03-.856 6.018-.057 2.982 1.2 5.3 3.16 8.724 3.16 2.282 0 4.087-.307 5.412-.916-.235-2.593-.235-4.688 0-6.284.006-.042-.192-.321-.595-.838l-21.119-.25.497 6.229 1.063-1.044z" transform="translate(-25 -1889) translate(25 1887) translate(0 2)"/>
                            <path fill="#FFF" d="M1.2 10.657c.58-5.32 5.202-9.473 10.8-9.473 5.6 0 10.217 4.153 10.8 9.473H1.2z" transform="translate(-25 -1889) translate(25 1887) translate(0 2)"/>
                            <path fill="#FFF" d="M12.202 1.783c-5.188 0-9.513 3.73-10.063 8.677-.043.348-.056.688-.056 1.04 0 .878.124 1.752.369 2.6.1.328.217.649.347.984l.309.672 9.094 16.135 9.4-16.794c.139-.321.25-.659.35-.999.247-.857.369-1.708.369-2.598 0-.352-.013-.69-.057-1.03-.551-4.956-4.877-8.687-10.062-8.687zm0 33.202L1.379 15.637c-.16-.409-.288-.763-.4-1.134C.694 13.518.55 12.51.55 11.5c0-.413.018-.809.066-1.205C1.247 4.607 6.23.31 12.202.31c5.971 0 10.95 4.296 11.584 9.992.05.386.068.784.068 1.197 0 1.013-.146 2.018-.428 2.994-.115.4-.248.797-.415 1.178l-.293.655-10.516 18.658z" transform="translate(-25 -1889) translate(25 1887) translate(0 2)"/>
                        </g>
                        <path fill="#FFF" d="M4.8 39.074H19.2V40.257999999999996H4.8z" transform="translate(-25 -1889) translate(25 1887) translate(0 2)"/>
                    </g>
                </g>
            </g>
        </g>
    </g>
</svg>
