<svg xmlns="http://www.w3.org/2000/svg" xmlns:xlink="http://www.w3.org/1999/xlink" width="9" height="15" viewBox="0 0 9 15">
    <defs>
        <path id="s9k2jwmp9a" d="M0 0L14.389 0 14.389 7.707 0 7.707z"/>
    </defs>
    <g fill="none" fill-rule="evenodd">
        <g>
            <g transform="translate(-1400 -890) rotate(90 259 1149.5)">
                <mask id="3uhrfa6c0b" fill="#fff">
                    <use xlink:href="#s9k2jwmp9a"/>
                </mask>
                <path fill="#1B3544" d="M7.09.007c-.159.023-.307.095-.423.207L.272 6.354c-.323.273-.365.757-.091 1.08.274.325.758.366 1.081.092.023-.02.045-.04.066-.062L7.195 1.83l5.867 5.635c.29.31.775.326 1.085.036.309-.29.325-.776.035-1.085-.02-.022-.042-.042-.065-.062L7.722.214c-.168-.161-.4-.238-.631-.207" mask="url(#3uhrfa6c0b)"/>
            </g>
        </g>
    </g>
</svg>
