<?xml version="1.0" encoding="utf-8"?>
<!-- Generator: Adobe Illustrator 24.3.0, SVG Export Plug-In . SVG Version: 6.00 Build 0)  -->
<svg version="1.1" id="Livello_1" xmlns="http://www.w3.org/2000/svg" xmlns:xlink="http://www.w3.org/1999/xlink" x="0px" y="0px"
	 viewBox="0 0 22 11" style="enable-background:new 0 0 22 11;" xml:space="preserve">
<style type="text/css">
	.st0{filter:url(#Adobe_OpacityMaskFilter);}
	.st1{fill-rule:evenodd;clip-rule:evenodd;fill:#FFFFFF;}
	.st2{mask:url(#iiz16igleb_1_);fill-rule:evenodd;clip-rule:evenodd;fill:#FFFFFF;}
</style>
<g>
	<g>
		<g transform="translate(-42 -129) translate(42 129)">
			<defs>
				<filter id="Adobe_OpacityMaskFilter" filterUnits="userSpaceOnUse" x="0" y="0" width="21.8" height="10.6">
					<feColorMatrix  type="matrix" values="1 0 0 0 0  0 1 0 0 0  0 0 1 0 0  0 0 0 1 0"/>
				</filter>
			</defs>
			<mask maskUnits="userSpaceOnUse" x="0" y="0" width="21.8" height="10.6" id="iiz16igleb_1_">
				<g class="st0">
					<path id="_x33_0mr2f1s9a_1_" class="st1" d="M21.8,10.6H0L0,0l21.8,0V10.6z"/>
				</g>
			</mask>
			<path class="st2" d="M21.8,5.3c0-0.1,0-0.3-0.2-0.4l-4.5-4.8c-0.2-0.2-0.6-0.2-0.8,0c-0.2,0.2-0.2,0.6,0,0.8L20,4.8H0.6
				C0.2,4.8,0,5,0,5.3c0,0.3,0.2,0.6,0.6,0.6H20l-3.6,3.8c-0.2,0.2-0.2,0.6,0,0.8c0.2,0.2,0.6,0.2,0.8,0l4.5-4.8
				C21.8,5.6,21.8,5.5,21.8,5.3"/>
		</g>
	</g>
</g>
</svg>
