<svg xmlns="http://www.w3.org/2000/svg" width="30" height="30" viewBox="0 0 30 30">
    <g fill="none" fill-rule="evenodd">
        <g fill="#212832">
            <g>
                <g>
                    <g transform="translate(-27 -879) translate(28 880)">
                        <path stroke="#1F2833" d="M13.975 10.758c6.72 0 12.187 5.436 12.187 12.116v.711H1.788v-.711c0-6.68 5.467-12.116 12.187-12.116h0zm0-3.204c.596 0 1.081.482 1.081 1.075 0 .592-.485 1.075-1.081 1.075s-1.081-.483-1.081-1.075c0-.593.485-1.075 1.08-1.075h0zM.7 27.304h26.598v-3.022H.701v3.021zm.386-3.719H.35c-.193 0-.35.156-.35.349v3.718c0 .192.157.348.35.348h27.3c.193 0 .35-.156.35-.348v-3.718c0-.193-.157-.349-.35-.349h-.787v-.711c0-6.735-5.255-12.268-11.902-12.772.48-.318.796-.859.796-1.473 0-.977-.8-1.772-1.782-1.772-.983 0-1.782.795-1.782 1.772 0 .614.317 1.155.796 1.473-6.647.504-11.902 6.037-11.902 12.772v.711zM9.73 3.833c.054.107.155.167.259.167.049 0 .099-.013.144-.041.143-.088.195-.286.115-.443L9.128 1.31c-.08-.157-.26-.213-.404-.126-.143.088-.195.286-.115.443l1.12 2.206zM4.602 5.332c-.083.157.01.339.205.405l3.231 1.096c.049.016.1.024.15.024.149 0 .291-.07.353-.19.082-.157-.009-.338-.204-.404L5.105 5.167c-.196-.066-.421.007-.503.165M14.286 3.597V.403C14.286.18 14.158 0 14 0c-.158 0-.286.18-.286.403v3.194c0 .223.128.403.286.403.158 0 .286-.18.286-.403M19.28 1.183c-.139-.085-.314-.03-.392.122l-1.137 2.227c-.078.152-.028.344.112.428.044.027.092.04.14.04.1 0 .199-.058.252-.162l1.137-2.227c.077-.152.027-.344-.111-.428M19.46 6.662c.064.122.212.195.367.195.052 0 .104-.008.155-.025l3.203-1.077c.202-.069.298-.255.212-.417-.085-.163-.318-.238-.522-.17l-3.202 1.077c-.203.069-.298.255-.213.417"/>
                        <path d="M0.129 23.585L27.429 23.934 27.429 27.303 0.129 27.303z"/>
                        <circle cx="14" cy="8.286" r="1.429"/>
                    </g>
                </g>
            </g>
        </g>
    </g>
</svg>
