<svg xmlns="http://www.w3.org/2000/svg" width="35" height="35" viewBox="0 0 35 35">
    <g fill="none" fill-rule="evenodd">
        <g fill="#FFF">
            <g>
                <g>
                    <g>
                        <g>
                            <g>
                                <g>
                                    <g>
                                        <g transform="translate(-439 -504) translate(381 457) translate(0 2.94) translate(0 2.611) translate(58.8 42.14)">
                                            <g>
                                                <path d="M16.83 12.956c8.094 0 14.678 6.547 14.678 14.592v.857H2.153v-.857c0-8.046 6.584-14.592 14.678-14.592zm0-3.858c.719 0 1.303.58 1.303 1.294 0 .714-.584 1.294-1.302 1.294-.718 0-1.302-.58-1.302-1.294 0-.714.584-1.294 1.302-1.294zM.845 32.882h32.033v-3.638H.844v3.638zm.465-5.334v.857H.422c-.233 0-.422.187-.422.42v4.477c0 .232.19.42.422.42H33.3c.233 0 .423-.188.423-.42v-4.478c0-.232-.19-.42-.423-.42h-.947v-.856c0-8.11-6.328-14.775-14.334-15.381.577-.383.959-1.035.959-1.775 0-1.177-.963-2.134-2.146-2.134-1.184 0-2.147.957-2.147 2.134 0 .74.382 1.392.959 1.775-8.006.606-14.334 7.27-14.334 15.38zM11.717 4.616c.066.129.187.201.313.201.06 0 .119-.016.174-.05.172-.105.234-.343.138-.532l-1.35-2.657c-.095-.19-.312-.257-.485-.152-.173.106-.235.344-.139.533l1.35 2.657zM5.542 6.422c-.1.19.011.407.247.488L9.68 8.23c.058.019.119.028.18.028.18 0 .351-.085.426-.228.099-.19-.012-.407-.247-.488l-3.892-1.32c-.236-.078-.507.01-.606.2M17.205 4.332V.486c0-.269-.154-.486-.344-.486-.19 0-.344.217-.344.486v3.846c0 .268.154.485.344.485.19 0 .344-.217.344-.485M23.22 1.425c-.167-.103-.379-.037-.472.146l-1.37 2.683c-.093.183-.033.414.135.515.053.033.11.048.168.048.122 0 .24-.07.304-.194l1.37-2.683c.093-.183.032-.414-.135-.515M23.436 8.024c.078.147.256.234.443.234.062 0 .125-.01.186-.03l3.857-1.297c.244-.083.36-.307.256-.503-.103-.195-.384-.286-.628-.204L23.693 7.52c-.245.083-.36.307-.257.503"/>
                                            </g>
                                            <path stroke="#FFF" stroke-width=".903" d="M0.156 28.405L33.033 28.824 33.033 32.882 0.156 32.882z"/>
                                            <circle cx="16.861" cy="9.979" r="1.269" stroke="#FFF" stroke-width=".903"/>
                                        </g>
                                    </g>
                                </g>
                            </g>
                        </g>
                    </g>
                </g>
            </g>
        </g>
    </g>
</svg>
