<svg xmlns="http://www.w3.org/2000/svg" xmlns:xlink="http://www.w3.org/1999/xlink" width="24" height="34" viewBox="0 0 24 34">
    <defs>
        <path id="hx9ey1cfaa" d="M.023.41l.45 5.634.96-.944c1.497-1.137 3.647-.774 5.446-.05 2.698 1.084 4.794 2.858 7.892 2.858 2.066 0 3.696-.278 4.895-.83L20.65.41H.023z"/>
    </defs>
    <g fill="none" fill-rule="evenodd">
        <g>
            <g>
                <g>
                    <g>
                        <g>
                            <g>
                                <g>
                                    <g>
                                        <g>
                                            <g transform="translate(-626 -503) translate(381 457) translate(0 2.94) translate(181.225 .87) translate(63.7 42.14) translate(1.163 6.909)">
                                                <mask id="vqrzb6amkb" fill="#fff">
                                                    <use xlink:href="#hx9ey1cfaa"/>
                                                </mask>
                                                <path fill="#FFF" d="M-401.687 471.588L216.328 471.588 216.328 -573.839 -401.687 -573.839z" mask="url(#vqrzb6amkb)"/>
                                                <path fill="#FFF" d="M-9.635 17.11L30.306 17.11 30.306 -8.794 -9.635 -8.794z" mask="url(#vqrzb6amkb)"/>
                                            </g>
                                            <path fill="#FFF" d="M2.855 12.903c1.602-1.223 3.906-.832 5.833-.056 2.891 1.167 5.137 3.074 8.457 3.074 2.212 0 3.961-.299 5.246-.892-.228-2.521-.228-4.558 0-6.11.006-.041-.186-.313-.577-.815L1.343 7.86l.482 6.058 1.03-1.015z" transform="translate(-626 -503) translate(381 457) translate(0 2.94) translate(181.225 .87) translate(63.7 42.14)"/>
                                            <path fill="#FFF" d="M1.163 10.363c.563-5.173 5.043-9.212 10.47-9.212 5.428 0 9.903 4.04 10.468 9.212H1.163z" transform="translate(-626 -503) translate(381 457) translate(0 2.94) translate(181.225 .87) translate(63.7 42.14)"/>
                                            <path fill="#FFF" d="M2.074 10.267c-.042.342-.055.677-.055 1.023 0 .864.121 1.723.362 2.557.098.322.213.638.34.968l.303.66 8.914 15.868 9.215-16.515c.137-.316.245-.648.343-.983.243-.843.362-1.68.362-2.555 0-.346-.013-.679-.055-1.013-.541-4.874-4.781-8.543-9.865-8.543-5.085 0-9.325 3.669-9.864 8.533zm9.754 23.755L1.337 15.207c-.156-.398-.28-.743-.387-1.104-.278-.957-.417-1.936-.417-2.92 0-.401.017-.786.063-1.172C1.21 4.48 6.04.303 11.828.303c5.788 0 10.615 4.177 11.23 9.717.048.375.064.762.064 1.163 0 .986-.14 1.963-.414 2.912-.112.39-.24.775-.402 1.146l-.284.637-10.194 18.144z" transform="translate(-626 -503) translate(381 457) translate(0 2.94) translate(181.225 .87) translate(63.7 42.14)"/>
                                        </g>
                                    </g>
                                </g>
                            </g>
                        </g>
                    </g>
                </g>
            </g>
        </g>
    </g>
</svg>
