<svg xmlns="http://www.w3.org/2000/svg" xmlns:xlink="http://www.w3.org/1999/xlink" width="32" height="32" viewBox="0 0 32 32">
    <defs>
        <path id="sgoxzwzjca" d="M0 0L32 0 32 32 0 32z"/>
    </defs>
    <g fill="none" fill-rule="evenodd">
        <g>
            <g>
                <g transform="translate(-31 -2758) translate(31 2758)">
                    <mask id="jm49clpdqb" fill="#fff">
                        <use xlink:href="#sgoxzwzjca"/>
                    </mask>
                    <path fill="#212832" d="M21.499 29.914c-.382-.51-.732-1.04-1.048-1.593l-.16-.274c-.54-.915-.955-1.72-.568-2.306.109-.184.297-.307.51-.333.482-.016.95.162 1.302.494l.095.084c.382.34.858.76 1.498.78.394-.014.775-.136 1.103-.354.144-.09.299-.162.46-.213.493-.114 1.419-.134 1.95.28l.02.011c-1.464 1.488-3.222 2.654-5.162 3.424m-9.662.457c.445-.817.797-1.68 1.05-2.576.804-2.94-.554-4.112-1.835-4.578-.493-.164-.997-.292-1.508-.383-.936-.192-1.904-.39-2.483-.966-.096-.082-.148-.204-.14-.33.062-.21.524-.346.86-.446.15-.044.29-.086.42-.136 1.446-.56 2.542-1.307 3.259-2.221.26-.402.45-.845.562-1.31.145-.465.389-1.243.64-1.326.073-.022.238.017.49.197.27.264 1.672 1.578 2.862 1.446.426-.046.809-.283 1.04-.644.296-.326 1.205-1.741-1.429-4.93l-1.735-2.16c-.15-.185-.138-.562-.128-.926.005-.164.01-.333.001-.495-.055-.943-.624-1.473-1.125-1.941-.215-.188-.412-.394-.59-.616-.19-.29-.328-.61-.408-.948-.123-.531-.368-1.027-.716-1.447-.415-.456-.917-.827-1.475-1.09 1.616-.79 3.363-1.28 5.154-1.445.275.983 2.187 1.802 3.63 2.045.39.065.785.098 1.18.098 1.192 0 2.305-.3 2.715-.893 1.356.611 2.613 1.42 3.73 2.401.076.887-.042 1.78-.345 2.616-.114.199-.25.384-.404.554-.44.528-1.044 1.253-.593 2.171.146.28.318.545.515.791.277.366.476.63.503 1.089.039.58-.22 1.14-.688 1.486-.463.34-1.037.453-1.645.573-.659.13-1.34.264-1.947.694-1.11.784-1.262 2.331-1.034 3.517.286 1.497 1.175 2.635 2.264 2.898.2.048.405.07.611.07.604-.024 1.198-.157 1.756-.39 1.352-.514 3.811-.597 5.383-.2-.613 1.88-1.593 3.619-2.883 5.117-.023-.027-.048-.052-.076-.074-.82-.638-2.03-.652-2.817-.47-.258.071-.504.178-.731.319-.17.114-.364.19-.567.223-.267-.009-.56-.27-.845-.521l-.1-.088c-.492-.431-1.306-.852-2.12-.741-.509.066-.961.355-1.235.789-.771 1.171.02 2.51.542 3.397l.153.262c.284.497.595.98.93 1.445-2.81.883-5.82.915-8.648.093M1.348 19.061c.246-.937 1.014-2.186 1.659-2.678.418-.319.99-.755 1.173-1.464.26-1.007-.186-1.987-.58-2.853-.165-.34-.307-.692-.424-1.053l-.064-.218c-.224-.757-.415-1.415-.03-2.34 1.257-2.147 3.027-3.949 5.15-5.245.74.172 1.412.562 1.93 1.12.24.309.408.668.49 1.051.112.455.306.886.572 1.272.214.27.451.52.71.748.49.457.769.74.799 1.246.006.117.002.256-.002.404-.015.5-.033 1.122.355 1.606l1.74 2.164c1.81 2.191 1.682 3.309 1.47 3.575-.036.027-.065.063-.084.104-.06.12-.178.202-.312.216-.537.064-1.522-.653-2.047-1.179-.018-.018-.038-.036-.06-.051-.525-.387-1.014-.511-1.452-.368-.757.248-1.048 1.178-1.304 1.998-.086.343-.217.673-.39.982-.6.766-1.549 1.404-2.819 1.896-.099.038-.216.072-.34.109-.533.157-1.338.396-1.557 1.146-.123.49.031 1.007.402 1.35.797.795 1.97 1.035 3.005 1.246.46.082.916.196 1.361.342.891.324 1.833.996 1.192 3.336-.25.88-.604 1.727-1.053 2.524-4.84-1.79-8.423-5.937-9.49-10.986m.66-8.37c.037.135.076.268.114.397l.062.211c.13.41.29.809.477 1.195.354.778.689 1.513.52 2.166-.087.337-.387.587-.8.902-.524.438-.965.968-1.302 1.563-.028-.373-.047-.747-.047-1.127 0-1.814.33-3.612.976-5.307m19.059-8.774c-.85.317-1.773.39-2.663.21-.954-.142-1.857-.516-2.633-1.089.077-.001.152-.006.229-.006 1.727 0 3.442.298 5.067.885m9.9 14.081c0 1.224-.15 2.444-.447 3.63-1.797-.465-4.457-.372-6.036.227-.53.201-1.208.415-1.757.282-.686-.166-1.286-1.005-1.494-2.09-.206-1.076.042-2.073.617-2.48.427-.302.973-.41 1.55-.523.66-.13 1.409-.278 2.057-.754.75-.553 1.167-1.45 1.108-2.379-.052-.612-.301-1.192-.71-1.65-.157-.194-.296-.403-.412-.624-.141-.287.031-.543.46-1.056.21-.233.391-.49.54-.766.265-.657.418-1.353.455-2.06 2.616 2.77 4.072 6.435 4.07 10.243m1.032 0C32.003 7.165 24.844.003 16.01 0 10.354-.002 5.118 2.983 2.238 7.85c-.03.037-.056.077-.076.12l-.018.044C.204 11.368-.45 15.314.307 19.116c.002.02.006.039.01.058 1.755 8.66 10.198 14.259 18.859 12.504C26.636 30.168 32 23.61 32 15.998" mask="url(#jm49clpdqb)"/>
                </g>
                <path fill="#212832" stroke="#212832" d="M26.66 5.225l-1.797 4.463 1.202 2.41-1.202 1.81L21.067 16v2.821l1.374 1.76 6.775-.403h1.752v-1.357-6.723l-1.752-4.273-2.555-2.6z" transform="translate(-31 -2758) translate(31 2758)"/>
                <path fill="#1F2833" d="M9.2 3.21l4.563 5.377v2.104L17.23 16l-.816 1.2-1.273-.075-1.926-1.449-1.193.324-.78 2.025-1.294 1.673-3.027 1.017-.682 1.003 2.961 1.55 2.822 1.2.772 2.881-1.552 3.616c-3.835-2.169-6.07-3.637-6.704-4.406-.635-.768-1.803-2.895-3.506-6.38v-2.154l2.194-2.805.612-1.312-.612-2.184L2.13 9.532l2.066-3.514L6.921 3.21l1.575-.652.704.652z" transform="translate(-31 -2758) translate(31 2758)"/>
            </g>
        </g>
    </g>
</svg>
